<svg xmlns="http://www.w3.org/2000/svg" viewBox="2830.528 1232 18 17.235">
  <defs>
    <style>
      .cls-1 {
        fill: #b7cbf0;
      }
    </style>
  </defs>
  <g id="group-114" transform="translate(2641 912)">
    <path id="path" class="cls-1" d="M18.1,6.352A1.4,1.4,0,0,0,15.893,8a.378.378,0,0,1-.051.431l-1.573,1.852a.286.286,0,0,1-.457-.025L10.87,5.946a.425.425,0,0,1,.051-.533A1.942,1.942,0,0,0,11.5,3.765,1.961,1.961,0,0,0,7.6,4.019a1.933,1.933,0,0,0,.609,1.421.419.419,0,0,1,.051.533L5.315,10.284a.286.286,0,0,1-.457.025L3.286,8.458a.389.389,0,0,1-.051-.431,1.391,1.391,0,0,0-.2-1.547,1.429,1.429,0,0,0-1.979-.127A1.3,1.3,0,0,0,.9,8.305a1.5,1.5,0,0,0,.812.431.377.377,0,0,1,.33.33l.634,2.41v2.156a.342.342,0,0,0,.533.279A10.819,10.819,0,0,1,9.5,12.263a10.762,10.762,0,0,1,6.291,1.649.332.332,0,0,0,.533-.279V11.476l.66-2.461a.445.445,0,0,1,.33-.3,1.628,1.628,0,0,0,.786-.38A1.357,1.357,0,0,0,18.1,6.352Z" transform="translate(189 317.946)"/>
    <ellipse id="ellipse" class="cls-1" cx="6.849" cy="3.12" rx="6.849" ry="3.12" transform="translate(191.677 330.995)"/>
  </g>
</svg>
