<svg xmlns="http://www.w3.org/2000/svg" viewBox="5503 1638 22 22"><defs><style>.a{fill:#4a77da;fill-rule:evenodd;}</style></defs><path class="a" d="M26.359-48.652l.977-5.452a.871.871,0,0,1,.242-.464L36.9-63.885a.874.874,0,0,1,1.236,0,.874.874,0,0,1,0,1.236l-7.873,7.872.942.509,1.746,1.747.509,1.025,7.914-7.915a.874.874,0,0,1,1.236,0,.874.874,0,0,1,0,1.236l-9.317,9.318a.871.871,0,0,1-.464.242l-5.452.977A.875.875,0,0,1,26.359-48.652Zm3.466-1.2,2.291-.41-.607-1.224L30.145-52.85,29-53.471,28.574-51.1ZM42.51-59.824,38.333-64a.874.874,0,0,1,0-1.236.874.874,0,0,1,1.236,0l.007-.006a.874.874,0,0,1,0-1.236.874.874,0,0,1,1.236,0L44.988-62.3a.874.874,0,0,1,0,1.236.874.874,0,0,1-1.236,0l-.006.007a.874.874,0,0,1,0,1.236A.874.874,0,0,1,42.51-59.824ZM45.4-62.206a.875.875,0,0,1,0-1.237l.924-.923L46.3-64.4a15.741,15.741,0,0,0-3.174-3.189l-.036-.025-.93.93a.875.875,0,0,1-1.237,0,.875.875,0,0,1,0-1.237l1.45-1.451a.875.875,0,0,1,1.1-.11,17.538,17.538,0,0,1,4.71,4.706.875.875,0,0,1-.1,1.116l-1.451,1.45A.875.875,0,0,1,45.4-62.206Z" transform="translate(5476.655 1707.623)"/></svg>