<svg xmlns="http://www.w3.org/2000/svg" viewBox="5539 1638 18 22"><defs><style>.a{fill:red;fill-rule:evenodd;}</style></defs><path class="a" d="M17.615,7.875V20.25A2.76,2.76,0,0,1,14.846,23H5.154a2.76,2.76,0,0,1-2.769-2.75V7.875A1.38,1.38,0,0,1,1,6.5V5.125A1.38,1.38,0,0,1,2.385,3.75H6.538V2.375A1.38,1.38,0,0,1,7.923,1h4.154a1.38,1.38,0,0,1,1.385,1.375V3.75h4.154A1.38,1.38,0,0,1,19,5.125V6.5A1.38,1.38,0,0,1,17.615,7.875Zm-13.846,0V20.25a1.38,1.38,0,0,0,1.385,1.375h9.692a1.38,1.38,0,0,0,1.385-1.375V7.875ZM7.923,3.75V3.063a.69.69,0,0,1,.692-.688h2.769a.69.69,0,0,1,.692.688V3.75H7.923m9,1.375H3.077a.688.688,0,1,0,0,1.375H16.923a.688.688,0,1,0,0-1.375Zm-10.385,5.5a.69.69,0,0,1,.692.688v8.25a.692.692,0,0,1-1.385,0v-8.25A.69.69,0,0,1,6.538,10.625Zm3.462,0a.69.69,0,0,1,.692.688v8.25a.692.692,0,0,1-1.385,0v-8.25A.69.69,0,0,1,10,10.625Zm3.462,0a.69.69,0,0,1,.692.688v8.25a.692.692,0,0,1-1.385,0v-8.25A.69.69,0,0,1,13.462,10.625Z" transform="translate(5538 1637)"/></svg>