<?xml version="1.0" encoding="UTF-8"?>
<svg width="53px" height="53px" viewBox="0 0 53 53" version="1.1" xmlns="http://www.w3.org/2000/svg" xmlns:xlink="http://www.w3.org/1999/xlink">
    <!-- Generator: Sketch 40.3 (33839) - http://www.bohemiancoding.com/sketch -->
    <title>Untitled</title>
    <desc>Created with Sketch.</desc>
    <defs>
        <circle id="path-1" cx="26" cy="26" r="26"></circle>
        <mask id="mask-2" maskContentUnits="userSpaceOnUse" maskUnits="objectBoundingBox" x="0" y="0" width="52" height="52" fill="white">
            <use xlink:href="#path-1"></use>
        </mask>
    </defs>
    <g id="Page-1" stroke="none" stroke-width="1" fill="none" fill-rule="evenodd">
        <g id="Group-7">
            <g id="Group-4">
                <use id="Oval" stroke="#DBDBDB" mask="url(#mask-2)" stroke-width="2" xlink:href="#path-1"></use>
                <g id="Group-3" transform="translate(15.000000, 17.000000)">
                    <g id="Group">
                        <path d="M6.47478723,1.47751064 L8.57274468,3.92068085 C8.66285106,4.03676596 8.54348936,4.12289362 8.54348936,4.12289362 C7.70280851,4.57623404 7.09453191,5.26151064 6.57402128,6.04602128 C6.47080851,6.20189362 6.35940426,6.08885106 6.35940426,6.08885106 L3.70091489,4.09785106 C3.70091489,4.09785106 3.58670213,4.03068085 3.6866383,3.89797872 C4.46506383,2.86421277 5.17234043,2.13517021 6.303,1.44708511 C6.303,1.44708511 6.38865957,1.36610638 6.47478723,1.47751064" id="Fill-1" fill="#C1362B"></path>
                        <g id="Group-5" transform="translate(0.000000, 5.382979)">
                            <path d="M2.75304255,0.0746595745 L5.89506383,1.59359574 C6.04438298,1.65140426 5.9697234,1.78738298 5.9697234,1.78738298 C5.53557447,2.82021277 5.27110638,3.69225532 5.06702128,4.74895745 C5.03285106,4.92589362 4.91278723,4.86925532 4.91278723,4.86925532 L1.37874468,3.3346383 C1.37874468,3.3346383 1.2727234,3.29508511 1.31695745,3.15887234 C1.47376596,2.67557447 2.27325532,0.745659574 2.59412766,0.114914894 C2.59412766,0.114914894 2.65029787,0.0191914894 2.75304255,0.0746595745" id="Fill-2" fill="#B52F2A"></path>
                            <path d="M0.995148936,4.95351064 C1.71389362,5.17491489 4.72953191,5.86955319 4.72953191,5.86955319 C4.90997872,5.92525532 4.85614894,6.06076596 4.85614894,6.06076596 C4.64808511,7.69906383 4.69348936,8.94931915 4.69348936,9.3813617 C4.69348936,9.57280851 4.554,9.5447234 4.554,9.5447234 L0.153297872,9.5447234 C-0.0381489362,9.5447234 0.0039787234,9.37246809 0.0039787234,9.37246809 C0.039787234,8.82668085 0.197297872,7.27380851 0.80393617,5.0473617 C0.80393617,5.0473617 0.83412766,4.90412766 0.995148936,4.95351064" id="Fill-4" fill="#9A2727"></path>
                        </g>
                        <path d="M15.3948511,1.47751064 L13.2968936,3.92068085 C13.2067872,4.03676596 13.3261489,4.12289362 13.3261489,4.12289362 C14.1668298,4.57623404 14.7751064,5.26151064 15.295617,6.04602128 C15.3988298,6.20189362 15.510234,6.08885106 15.510234,6.08885106 L18.1687234,4.09785106 C18.1687234,4.09785106 18.2829362,4.03068085 18.183,3.89797872 C17.4045745,2.86421277 16.6972979,2.13517021 15.5666383,1.44708511 C15.5666383,1.44708511 15.4809787,1.36610638 15.3948511,1.47751064" id="Fill-6" fill="#C1362B"></path>
                        <path d="M10.9349362,3.56868085 C11.2878723,3.56868085 11.9417872,3.60238298 12.2504894,3.6536383 C12.4117447,3.68031915 12.4515319,3.57382979 12.4515319,3.57382979 L13.772234,0.814234043 C13.772234,0.814234043 13.8604681,0.710319149 13.6755745,0.642680851 C12.6897872,0.282021277 12.1655319,0.116085106 10.9349362,0.116085106 C9.71885106,0.116085106 9.17985106,0.282021277 8.19406383,0.642680851 C8.00917021,0.710319149 8.09740426,0.814234043 8.09740426,0.814234043 L9.41810638,3.57382979 C9.41810638,3.57382979 9.45789362,3.68031915 9.61914894,3.6536383 C9.92785106,3.60238298 10.5815319,3.56868085 10.9349362,3.56868085" id="Fill-7" fill="#CE4E43"></path>
                        <path d="M19.1165957,5.4576383 L15.9745745,6.97657447 C15.8252553,7.03438298 15.8999149,7.1703617 15.8999149,7.1703617 C16.3340638,8.20319149 16.5985319,9.07523404 16.802617,10.1319362 C16.8367872,10.3088723 16.9568511,10.252234 16.9568511,10.252234 L20.4908936,8.71761702 C20.4908936,8.71761702 20.5969149,8.67806383 20.5526809,8.54185106 C20.3958723,8.05855319 19.596383,6.1286383 19.2755106,5.49789362 C19.2755106,5.49789362 19.2193404,5.40217021 19.1165957,5.4576383" id="Fill-8" fill="#B52F2A"></path>
                        <path d="M20.8744894,10.3364894 C20.1557447,10.5578936 17.1401064,11.2525319 17.1401064,11.2525319 C16.9594255,11.308234 17.0132553,11.4437447 17.0132553,11.4437447 C17.2215532,13.0820426 17.1761489,14.3322979 17.1761489,14.7643404 C17.1761489,14.9557872 17.3156383,14.9277021 17.3156383,14.9277021 L21.7163404,14.9277021 C21.9075532,14.9277021 21.8656596,14.7554468 21.8656596,14.7554468 C21.8298511,14.2096596 21.6723404,12.6567872 21.0657021,10.4303404 C21.0657021,10.4303404 21.0355106,10.2871064 20.8744894,10.3364894" id="Fill-9" fill="#9A2727"></path>
                    </g>
                </g>
            </g>
        </g>
    </g>
</svg>