<?xml version="1.0" encoding="UTF-8"?>
<svg width="53px" height="53px" viewBox="0 0 53 53" version="1.1" xmlns="http://www.w3.org/2000/svg" xmlns:xlink="http://www.w3.org/1999/xlink">
    <!-- Generator: Sketch 40.3 (33839) - http://www.bohemiancoding.com/sketch -->
    <title>Untitled</title>
    <desc>Created with Sketch.</desc>
    <defs>
        <circle id="path-1" cx="26" cy="26" r="26"></circle>
        <mask id="mask-2" maskContentUnits="userSpaceOnUse" maskUnits="objectBoundingBox" x="0" y="0" width="52" height="52" fill="white">
            <use xlink:href="#path-1"></use>
        </mask>
    </defs>
    <g id="Page-1" stroke="none" stroke-width="1" fill="none" fill-rule="evenodd">
        <g id="Group-2">
            <use id="Oval" stroke="#DBDBDB" mask="url(#mask-2)" stroke-width="2" stroke-dasharray="5" xlink:href="#path-1"></use>
            <path d="M21.8291435,18.0588503 L23.927101,20.5020205 C24.0172074,20.6181057 23.8978457,20.7042333 23.8978457,20.7042333 C23.0571648,21.1575737 22.4488882,21.8428503 21.9283776,22.627361 C21.8251648,22.7832333 21.7137606,22.6701908 21.7137606,22.6701908 L19.0552712,20.6791908 C19.0552712,20.6791908 18.9410584,20.6120205 19.0409946,20.4793184 C19.8194201,19.4455525 20.5266967,18.7165099 21.6573563,18.0284248 C21.6573563,18.0284248 21.7430159,17.9474461 21.8291435,18.0588503" id="Fill-1" fill="#B8B8B8"></path>
            <path d="M17.4468786,22.0172913 L20.5888999,23.5362275 C20.738219,23.594036 20.6635594,23.7300147 20.6635594,23.7300147 C20.2294105,24.7628445 19.9649424,25.634887 19.7608573,26.6915892 C19.7266871,26.8685253 19.6066233,26.811887 19.6066233,26.811887 L16.0725807,25.27727 C16.0725807,25.27727 15.9665594,25.2377168 16.0107935,25.1015041 C16.167602,24.6182062 16.9670913,22.6882913 17.2879637,22.0575466 C17.2879637,22.0575466 17.3441339,21.9618232 17.4468786,22.0172913" id="Fill-2" fill="#B8B8B8"></path>
            <path d="M15.9951046,27.0103579 C16.7138493,27.2317622 19.7294876,27.9264005 19.7294876,27.9264005 C19.9099344,27.9821026 19.8561046,28.1176133 19.8561046,28.1176133 C19.6480408,29.7559111 19.6934451,31.0061665 19.6934451,31.438209 C19.6934451,31.6296558 19.5539557,31.6015707 19.5539557,31.6015707 L15.1532536,31.6015707 C14.9618068,31.6015707 15.0039344,31.4293154 15.0039344,31.4293154 C15.0397429,30.8835282 15.1972536,29.3306558 15.8038919,27.104209 C15.8038919,27.104209 15.8340834,26.960975 15.9951046,27.0103579" id="Fill-4" fill="#B8B8B8"></path>
            <path d="M30.1316111,18.0588503 L28.0336537,20.5020205 C27.9435473,20.6181057 28.062909,20.7042333 28.062909,20.7042333 C28.9035898,21.1575737 29.5118664,21.8428503 30.0323771,22.627361 C30.1355898,22.7832333 30.2469941,22.6701908 30.2469941,22.6701908 L32.9054835,20.6791908 C32.9054835,20.6791908 33.0196962,20.6120205 32.9197601,20.4793184 C32.1413345,19.4455525 31.4340579,18.7165099 30.3033983,18.0284248 C30.3033983,18.0284248 30.2177388,17.9474461 30.1316111,18.0588503" id="Fill-6" fill="#B8B8B8"></path>
            <path d="M25.8585738,20.4525957 C26.21151,20.4525957 26.8654248,20.4862979 27.174127,20.5375532 C27.3353823,20.564234 27.3751695,20.4577447 27.3751695,20.4577447 L28.6958717,17.6981489 C28.6958717,17.6981489 28.7841057,17.594234 28.5992121,17.5265957 C27.6134248,17.1659362 27.0891695,17 25.8585738,17 C24.6424887,17 24.1034887,17.1659362 23.1177014,17.5265957 C22.9328078,17.594234 23.0210419,17.6981489 23.0210419,17.6981489 L24.341744,20.4577447 C24.341744,20.4577447 24.3815312,20.564234 24.5427865,20.5375532 C24.8514887,20.4862979 25.5051695,20.4525957 25.8585738,20.4525957" id="Fill-7" fill="#B8B8B8"></path>
            <path d="M34.2353457,22.0172913 L31.0933245,23.5362275 C30.9440053,23.594036 31.0186649,23.7300147 31.0186649,23.7300147 C31.4528138,24.7628445 31.7172819,25.634887 31.921367,26.6915892 C31.9555372,26.8685253 32.0756011,26.811887 32.0756011,26.811887 L35.6096436,25.27727 C35.6096436,25.27727 35.7156649,25.2377168 35.6714309,25.1015041 C35.5146223,24.6182062 34.715133,22.6882913 34.3942606,22.0575466 C34.3942606,22.0575466 34.3380904,21.9618232 34.2353457,22.0172913" id="Fill-8" fill="#B8B8B8"></path>
            <path d="M35.8687385,27.0103579 C35.1499938,27.2317622 32.1343555,27.9264005 32.1343555,27.9264005 C31.9536746,27.9821026 32.0075044,28.1176133 32.0075044,28.1176133 C32.2158023,29.7559111 32.170398,31.0061665 32.170398,31.438209 C32.170398,31.6296558 32.3098874,31.6015707 32.3098874,31.6015707 L36.7105895,31.6015707 C36.9018023,31.6015707 36.8599087,31.4293154 36.8599087,31.4293154 C36.8241002,30.8835282 36.6665895,29.3306558 36.0599512,27.104209 C36.0599512,27.104209 36.0297597,26.960975 35.8687385,27.0103579" id="Fill-9" fill="#B8B8B8"></path>
        </g>
    </g>
</svg>