<?xml version="1.0" encoding="UTF-8"?>
<svg width="53px" height="53px" viewBox="0 0 53 53" version="1.1" xmlns="http://www.w3.org/2000/svg" xmlns:xlink="http://www.w3.org/1999/xlink">
    <!-- Generator: Sketch 40.3 (33839) - http://www.bohemiancoding.com/sketch -->
    <title>Untitled</title>
    <desc>Created with Sketch.</desc>
    <defs>
        <circle id="path-1" cx="26" cy="26" r="26"></circle>
        <mask id="mask-2" maskContentUnits="userSpaceOnUse" maskUnits="objectBoundingBox" x="0" y="0" width="52" height="52" fill="white">
            <use xlink:href="#path-1"></use>
        </mask>
    </defs>
    <g id="Page-1" stroke="none" stroke-width="1" fill="none" fill-rule="evenodd">
        <g id="Group-9">
            <use id="Oval" stroke="#DBDBDB" mask="url(#mask-2)" stroke-width="2" xlink:href="#path-1"></use>
            <g id="Group-6" transform="translate(13.000000, 17.000000)" fill="#6FDA44">
                <path d="M20.0603251,10.462314 C18.8673333,10.462314 17.7509091,9.95721212 16.734832,9.13595592 L16.9820826,7.97297521 L16.9910358,7.92792287 C17.2137906,6.69288705 17.9083416,4.62098072 20.0603251,4.62098072 C21.6710358,4.62098072 22.9810634,5.93129477 22.9810634,7.54186226 C22.9810634,9.15221488 21.6710358,10.462314 20.0603251,10.462314 L20.0603251,10.462314 Z M20.0603251,1.664573 C17.3151405,1.664573 15.1855041,3.44639669 14.3218457,6.38346556 C13.0025069,4.40109091 11.9995372,2.01990634 11.4170799,0.0153278237 L8.46060055,0.0153278237 L8.46060055,7.70323416 C8.46060055,9.22033058 7.22585124,10.4545785 5.70825344,10.4545785 C4.19101377,10.4545785 2.95647934,9.22033058 2.95647934,7.70323416 L2.95647934,0.0153278237 L0,0.0153278237 L0,7.70323416 C0,10.8503802 2.56089256,13.4340496 5.70825344,13.4340496 C8.85597245,13.4340496 11.4170799,10.8503802 11.4170799,7.70323416 L11.4170799,6.41612672 C11.9898678,7.61169697 12.6946612,8.82395592 13.5508705,9.89618733 L11.7423306,18.404562 L14.7647052,18.404562 L16.0765234,12.2334656 C17.2248926,12.9674821 18.5458072,13.4340496 20.0603251,13.4340496 C23.301157,13.4340496 25.9377576,10.7822645 25.9377576,7.54186226 C25.9377576,4.30117355 23.301157,1.664573 20.0603251,1.664573 L20.0603251,1.664573 Z" id="Fill-5"></path>
            </g>
        </g>
    </g>
</svg>