<?xml version="1.0" encoding="UTF-8"?>
<svg width="53px" height="53px" viewBox="0 0 53 53" version="1.1" xmlns="http://www.w3.org/2000/svg" xmlns:xlink="http://www.w3.org/1999/xlink">
    <!-- Generator: Sketch 40.3 (33839) - http://www.bohemiancoding.com/sketch -->
    <title>Untitled</title>
    <desc>Created with Sketch.</desc>
    <defs>
        <circle id="path-1" cx="26" cy="26" r="26"></circle>
        <mask id="mask-2" maskContentUnits="userSpaceOnUse" maskUnits="objectBoundingBox" x="0" y="0" width="52" height="52" fill="white">
            <use xlink:href="#path-1"></use>
        </mask>
    </defs>
    <g id="Page-1" stroke="none" stroke-width="1" fill="none" fill-rule="evenodd">
        <g id="Group-8">
            <use id="Oval" stroke="#DBDBDB" mask="url(#mask-2)" stroke-width="2" stroke-dasharray="5" xlink:href="#path-1"></use>
            <path d="M33.0603251,27.462314 C31.8673333,27.462314 30.7509091,26.9572121 29.734832,26.1359559 L29.9820826,24.9729752 L29.9910358,24.9279229 C30.2137906,23.6928871 30.9083416,21.6209807 33.0603251,21.6209807 C34.6710358,21.6209807 35.9810634,22.9312948 35.9810634,24.5418623 C35.9810634,26.1522149 34.6710358,27.462314 33.0603251,27.462314 L33.0603251,27.462314 Z M33.0603251,18.664573 C30.3151405,18.664573 28.1855041,20.4463967 27.3218457,23.3834656 C26.0025069,21.4010909 24.9995372,19.0199063 24.4170799,17.0153278 L21.4606006,17.0153278 L21.4606006,24.7032342 C21.4606006,26.2203306 20.2258512,27.4545785 18.7082534,27.4545785 C17.1910138,27.4545785 15.9564793,26.2203306 15.9564793,24.7032342 L15.9564793,17.0153278 L13,17.0153278 L13,24.7032342 C13,27.8503802 15.5608926,30.4340496 18.7082534,30.4340496 C21.8559725,30.4340496 24.4170799,27.8503802 24.4170799,24.7032342 L24.4170799,23.4161267 C24.9898678,24.611697 25.6946612,25.8239559 26.5508705,26.8961873 L24.7423306,35.404562 L27.7647052,35.404562 L29.0765234,29.2334656 C30.2248926,29.9674821 31.5458072,30.4340496 33.0603251,30.4340496 C36.301157,30.4340496 38.9377576,27.7822645 38.9377576,24.5418623 C38.9377576,21.3011736 36.301157,18.664573 33.0603251,18.664573 L33.0603251,18.664573 Z" id="Fill-5" fill="#B8B8B8"></path>
        </g>
    </g>
</svg>